<svg width="32" height="32" viewBox="0 0 32 32" fill="none" xmlns="http://www.w3.org/2000/svg">
<g clip-path="url(#clip0_240_107)">
<path d="M23.3335 11.2331C22.6983 11.2235 22.0802 11.0262 21.5569 10.6661C21.0336 10.3059 20.6285 9.7991 20.3926 9.2093C20.1567 8.61949 20.1005 7.97307 20.2312 7.35142C20.3618 6.72976 20.6733 6.16064 21.1267 5.71565C21.58 5.27065 22.1548 4.96965 22.7787 4.85057C23.4027 4.7315 24.048 4.79965 24.6333 5.04643C25.2186 5.29321 25.7179 5.70761 26.0683 6.23748C26.4186 6.76735 26.6045 7.38901 26.6023 8.02424C26.6086 8.45246 26.5278 8.87751 26.365 9.27362C26.2022 9.66972 25.9606 10.0286 25.655 10.3287C25.3494 10.6287 24.986 10.8635 24.587 11.019C24.1879 11.1745 23.7615 11.2473 23.3335 11.2331Z" fill="#4844EC"/>
<path d="M28.2532 19.9264C26.0955 16.7375 21.8666 16.9464 19.6332 18.7953C18.0043 20.142 17.0266 21.5375 15.4977 21.7864C13.6999 22.0798 11.9421 21.5064 10.5399 20.0998C9.26878 18.8375 7.791 17.9753 7.791 15.5042C7.791 13.662 8.11989 13.0331 8.51545 12.3131C9.01989 11.3931 10.2266 10.7286 10.9599 9.36419C11.6266 8.11975 11.3088 5.96642 10.051 4.86864C9.36993 4.28972 8.50024 3.98057 7.60657 3.99974C5.86657 3.99974 4.7399 4.84641 4.05101 6.30641C3.34657 7.82197 3.99101 9.63974 4.90656 10.5553C5.42829 11.0718 5.85882 11.6729 6.17989 12.3331C6.57385 13.3446 6.78237 14.4188 6.79545 15.5042C6.79545 16.9464 5.5599 18.2886 4.5199 19.3998C3.0599 20.9553 2.7999 23.0331 3.10434 24.2064C3.32277 25.1523 3.81788 26.0118 4.52657 26.6753C4.99007 27.1037 5.53407 27.4356 6.12699 27.6519C6.71992 27.8682 7.3499 27.9644 7.98035 27.935C8.61079 27.9057 9.22913 27.7513 9.79939 27.4809C10.3696 27.2104 10.8804 26.8293 11.3021 26.3597C12.3288 25.2331 13.2466 23.9153 15.4777 24.2953C17.3977 24.6131 17.4199 25.6998 19.5421 27.6287C20.6154 28.6042 23.0732 29.4731 25.3421 28.6798C27.6821 27.8642 29.2843 25.6264 29.2288 22.9131C29.179 21.8477 28.8419 20.8157 28.2532 19.9264Z" fill="#4844EC"/>
</g>
<defs>
<clipPath id="clip0_240_107">
<rect width="26.2378" height="25" fill="white" transform="translate(3 4)"/>
</clipPath>
</defs>
</svg>
