<svg width="269" height="57" viewBox="0 0 269 57" fill="none" xmlns="http://www.w3.org/2000/svg">
<g clip-path="url(#clip0_240_89)">
<path d="M29.1785 21.0898C28.2849 21.0762 27.4153 20.7986 26.6791 20.292C25.9428 19.7853 25.3729 19.0722 25.041 18.2424C24.7091 17.4126 24.6301 16.5031 24.8138 15.6285C24.9976 14.7539 25.436 13.9532 26.0738 13.3271C26.7115 12.701 27.5202 12.2776 28.3981 12.11C29.276 11.9425 30.1838 12.0384 31.0073 12.3856C31.8309 12.7328 32.5333 13.3158 33.0262 14.0613C33.5191 14.8068 33.7806 15.6814 33.7776 16.5751C33.7864 17.1776 33.6728 17.7756 33.4437 18.3329C33.2146 18.8902 32.8748 19.3952 32.4448 19.8173C32.0148 20.2394 31.5036 20.5698 30.9422 20.7885C30.3807 21.0073 29.7807 21.1098 29.1785 21.0898Z" fill="#4844EC"/>
<path d="M36.1001 33.3206C33.0643 28.8341 27.1146 29.128 23.9724 31.7292C21.6807 33.6239 20.305 35.5873 18.154 35.9375C15.6247 36.3502 13.1516 35.5436 11.1788 33.5645C9.39043 31.7886 7.31131 30.5755 7.31131 27.0989C7.31131 24.507 7.77404 23.6222 8.33055 22.6092C9.04027 21.3149 10.738 20.38 11.7697 18.4604C12.7076 16.7095 12.2606 13.6799 10.491 12.1355C9.53275 11.321 8.30916 10.886 7.05183 10.913C4.60378 10.913 3.01865 12.1042 2.04943 14.1583C1.05833 16.2906 1.96501 18.848 3.25313 20.1362C3.98716 20.8628 4.59287 21.7085 5.0446 22.6374C5.59887 24.0604 5.89224 25.5718 5.91065 27.0989C5.91065 29.128 4.17232 31.0164 2.70912 32.5796C0.655009 34.7682 0.289211 37.6915 0.717541 39.3422C1.02485 40.6731 1.72144 41.8823 2.71851 42.8158C3.37061 43.4184 4.13599 43.8855 4.97018 44.1898C5.80437 44.494 6.69072 44.6294 7.5777 44.5881C8.46469 44.5468 9.33465 44.3296 10.137 43.9491C10.9393 43.5687 11.6579 43.0325 12.2512 42.3718C13.6956 40.7867 14.9868 38.9327 18.1259 39.4673C20.8271 39.9144 20.8584 41.4433 23.8442 44.1571C25.3543 45.5296 28.8122 46.752 32.0044 45.6359C35.2966 44.4885 37.5508 41.3401 37.4726 37.5226C37.4025 36.0238 36.9283 34.5718 36.1001 33.3206Z" fill="#4844EC"/>
</g>
<path d="M53.9683 42.9999V12.409H59.562V38.6298H73.1094V42.9999H53.9683ZM80.9224 17.9591C79.9027 17.9591 79.0578 17.6532 78.3877 17.0413C77.7468 16.4295 77.4263 15.6575 77.4263 14.7252C77.4263 13.7929 77.7468 13.0354 78.3877 12.4527C79.0578 11.8409 79.9027 11.535 80.9224 11.535C81.9421 11.535 82.7724 11.8409 83.4134 12.4527C84.0835 13.0354 84.4185 13.7929 84.4185 14.7252C84.4185 15.6575 84.0835 16.4295 83.4134 17.0413C82.7724 17.6532 81.9421 17.9591 80.9224 17.9591ZM78.1255 42.9999V21.3241H83.7193V42.9999H78.1255ZM106.776 52.6142V39.8971C106.077 40.8585 105.145 41.7034 103.979 42.4318C102.843 43.1601 101.357 43.5243 99.5217 43.5243C97.4823 43.5243 95.6615 43.029 94.0591 42.0385C92.4567 41.0479 91.1894 39.6932 90.2571 37.9743C89.3248 36.2553 88.8586 34.3033 88.8586 32.1183C88.8586 29.9332 89.3248 27.9958 90.2571 26.306C91.1894 24.5871 92.4567 23.2469 94.0591 22.2855C95.6615 21.2949 97.4823 20.7996 99.5217 20.7996C101.153 20.7996 102.581 21.1056 103.804 21.7174C105.028 22.3292 106.019 23.1886 106.776 24.2957L107.388 21.3241H112.37V52.6142H106.776ZM100.702 38.6298C102.508 38.6298 103.979 38.0325 105.116 36.838C106.281 35.6144 106.864 34.0557 106.864 32.162C106.864 30.2683 106.281 28.7241 105.116 27.5296C103.979 26.306 102.508 25.6942 100.702 25.6942C98.9245 25.6942 97.4532 26.2914 96.2878 27.4859C95.1225 28.6804 94.5398 30.2246 94.5398 32.1183C94.5398 34.012 95.1225 35.5707 96.2878 36.7943C97.4532 38.018 98.9245 38.6298 100.702 38.6298ZM126.195 43.5243C123.485 43.5243 121.387 42.6794 119.902 40.9896C118.445 39.2999 117.716 36.8235 117.716 33.5604V21.3241H123.267V33.036C123.267 34.9006 123.645 36.3282 124.403 37.3187C125.16 38.3093 126.355 38.8046 127.986 38.8046C129.53 38.8046 130.798 38.251 131.788 37.1439C132.808 36.0368 133.318 34.4927 133.318 32.5116V21.3241H138.912V42.9999H133.973L133.536 39.329C132.866 40.6109 131.89 41.6306 130.608 42.3881C129.356 43.1456 127.884 43.5243 126.195 43.5243ZM147.669 17.9591C146.65 17.9591 145.805 17.6532 145.135 17.0413C144.494 16.4295 144.173 15.6575 144.173 14.7252C144.173 13.7929 144.494 13.0354 145.135 12.4527C145.805 11.8409 146.65 11.535 147.669 11.535C148.689 11.535 149.519 11.8409 150.16 12.4527C150.83 13.0354 151.165 13.7929 151.165 14.7252C151.165 15.6575 150.83 16.4295 150.16 17.0413C149.519 17.6532 148.689 17.9591 147.669 17.9591ZM144.872 42.9999V21.3241H150.466V42.9999H144.872ZM166.269 43.5243C164.229 43.5243 162.408 43.029 160.806 42.0385C159.204 41.0479 157.936 39.6932 157.004 37.9743C156.072 36.2553 155.606 34.3033 155.606 32.1183C155.606 29.9332 156.072 27.9958 157.004 26.306C157.936 24.5871 159.204 23.2469 160.806 22.2855C162.408 21.2949 164.229 20.7996 166.269 20.7996C167.9 20.7996 169.328 21.1056 170.551 21.7174C171.775 22.3292 172.766 23.1886 173.523 24.2957V11.535H179.117V42.9999H174.135L173.523 39.8971C172.824 40.8585 171.892 41.7034 170.726 42.4318C169.59 43.1601 168.104 43.5243 166.269 43.5243ZM167.449 38.6298C169.255 38.6298 170.726 38.0325 171.862 36.838C173.028 35.6144 173.61 34.0557 173.61 32.162C173.61 30.2683 173.028 28.7241 171.862 27.5296C170.726 26.306 169.255 25.6942 167.449 25.6942C165.671 25.6942 164.2 26.2914 163.035 27.4859C161.869 28.6804 161.287 30.2246 161.287 32.1183C161.287 34.012 161.869 35.5707 163.035 36.7943C164.2 38.018 165.671 38.6298 167.449 38.6298ZM199.278 43.5243C196.219 43.5243 193.539 42.8542 191.237 41.5141C188.965 40.1739 187.173 38.3239 185.862 35.964C184.58 33.575 183.939 30.8218 183.939 27.7044C183.939 24.5871 184.58 21.8485 185.862 19.4886C187.173 17.0996 188.965 15.235 191.237 13.8948C193.539 12.5547 196.219 11.8846 199.278 11.8846C202.308 11.8846 204.974 12.5547 207.275 13.8948C209.577 15.235 211.369 17.0996 212.651 19.4886C213.933 21.8485 214.574 24.5871 214.574 27.7044C214.574 30.8218 213.933 33.575 212.651 35.964C211.369 38.3239 209.577 40.1739 207.275 41.5141C204.974 42.8542 202.308 43.5243 199.278 43.5243ZM199.278 38.4987C202.192 38.4987 204.508 37.5372 206.227 35.6144C207.975 33.6915 208.849 31.0549 208.849 27.7044C208.849 24.354 207.975 21.7174 206.227 19.7945C204.508 17.8717 202.192 16.9102 199.278 16.9102C196.365 16.9102 194.034 17.8717 192.286 19.7945C190.538 21.7174 189.664 24.354 189.664 27.7044C189.664 31.0549 190.538 33.6915 192.286 35.6144C194.034 37.5372 196.365 38.4987 199.278 38.4987ZM219.381 52.6142V21.3241H224.363L224.975 24.4269C225.674 23.4654 226.592 22.6205 227.728 21.8922C228.894 21.1638 230.394 20.7996 232.23 20.7996C234.269 20.7996 236.09 21.2949 237.692 22.2855C239.295 23.2761 240.562 24.6308 241.494 26.3497C242.427 28.0686 242.893 30.0206 242.893 32.2057C242.893 34.3907 242.427 36.3427 241.494 38.0617C240.562 39.7514 239.295 41.0916 237.692 42.0822C236.09 43.0436 234.269 43.5243 232.23 43.5243C230.598 43.5243 229.17 43.2184 227.947 42.6066C226.723 41.9948 225.733 41.1353 224.975 40.0282V52.6142H219.381ZM231.05 38.6298C232.827 38.6298 234.298 38.0325 235.463 36.838C236.629 35.6435 237.212 34.0994 237.212 32.2057C237.212 30.312 236.629 28.7533 235.463 27.5296C234.298 26.306 232.827 25.6942 231.05 25.6942C229.243 25.6942 227.757 26.306 226.592 27.5296C225.456 28.7241 224.888 30.2683 224.888 32.162C224.888 34.0557 225.456 35.6144 226.592 36.838C227.757 38.0325 229.243 38.6298 231.05 38.6298ZM256.848 43.5243C254.926 43.5243 253.236 43.2184 251.779 42.6066C250.322 41.9656 249.157 41.0916 248.283 39.9845C247.409 38.8774 246.885 37.5955 246.71 36.1388H252.347C252.522 36.9837 252.988 37.712 253.746 38.3239C254.532 38.9065 255.537 39.1979 256.761 39.1979C257.985 39.1979 258.873 38.9502 259.427 38.455C260.009 37.9597 260.301 37.3916 260.301 36.7506C260.301 35.8183 259.893 35.1919 259.077 34.8715C258.261 34.5219 257.125 34.1868 255.668 33.8663C254.736 33.6624 253.789 33.4148 252.828 33.1234C251.866 32.8321 250.978 32.4679 250.162 32.0309C249.375 31.5647 248.735 30.982 248.239 30.2828C247.744 29.5545 247.496 28.6659 247.496 27.617C247.496 25.6942 248.254 24.0772 249.769 22.7662C251.313 21.4552 253.469 20.7996 256.237 20.7996C258.8 20.7996 260.84 21.3969 262.355 22.5914C263.899 23.7859 264.817 25.432 265.108 27.5296H259.82C259.5 25.9273 258.291 25.1261 256.193 25.1261C255.144 25.1261 254.328 25.33 253.746 25.7379C253.192 26.1458 252.915 26.6556 252.915 27.2674C252.915 27.9084 253.338 28.4182 254.183 28.797C255.028 29.1757 256.149 29.5253 257.548 29.8458C259.063 30.1954 260.446 30.5887 261.699 31.0257C262.981 31.4336 264.001 32.06 264.758 32.9049C265.516 33.7207 265.895 34.9006 265.895 36.4447C265.924 37.7849 265.574 38.9939 264.846 40.0719C264.117 41.1499 263.069 41.9948 261.699 42.6066C260.33 43.2184 258.713 43.5243 256.848 43.5243Z" fill="#191994"/>
<defs>
<clipPath id="clip0_240_89">
<rect width="36.9145" height="35.1731" fill="white" transform="translate(0.570923 10.9134)"/>
</clipPath>
</defs>
</svg>
